<svg width="31" height="26" viewBox="0 0 31 26" fill="none" xmlns="http://www.w3.org/2000/svg">
<path d="M3.65501 11.5811C3.65501 11.5811 15.5967 6.75159 19.7382 5.0511C21.3258 4.37091 26.7099 2.19417 26.7099 2.19417C26.7099 2.19417 29.1948 1.24204 28.9877 3.55456C28.9186 4.50687 28.3664 7.83987 27.8142 11.445C26.9859 16.5466 26.0885 22.1242 26.0885 22.1242C26.0885 22.1242 25.9506 23.6887 24.7772 23.9608C23.6036 24.2329 21.6709 23.0085 21.3258 22.7364C21.0497 22.5323 16.1489 19.4714 14.3543 17.975C13.871 17.5669 13.3188 16.7506 14.4233 15.7983C16.9082 13.5537 19.8763 10.7648 21.6709 8.99631C22.4992 8.17997 23.3276 6.27535 19.8763 8.58805C14.9755 11.921 10.1436 15.0501 10.1436 15.0501C10.1436 15.0501 9.03932 15.7303 6.96853 15.1181C4.89774 14.5059 2.48179 13.6897 2.48179 13.6897C2.48179 13.6897 0.825302 12.6692 3.65537 11.5811H3.65501Z" stroke="black" stroke-width="2.3"/>
</svg>
