<svg width="28" height="28" viewBox="0 0 28 28" fill="none" xmlns="http://www.w3.org/2000/svg">
<path d="M19.2133 2.26022C20.7108 2.26469 22.1457 2.86154 23.2046 3.92042C24.2635 4.97931 24.8603 6.41418 24.8648 7.91166V19.2133C24.8603 20.7108 24.2635 22.1457 23.2046 23.2046C22.1457 24.2635 20.7108 24.8603 19.2133 24.8648H7.91166C6.41418 24.8603 4.97931 24.2635 3.92042 23.2046C2.86154 22.1457 2.26469 20.7108 2.26022 19.2133V7.91166C2.26469 6.41418 2.86154 4.97931 3.92042 3.92042C4.97931 2.86154 6.41418 2.26469 7.91166 2.26022H19.2133ZM19.2133 0H7.91166C3.56016 0 0 3.56016 0 7.91166V19.2133C0 23.5648 3.56016 27.125 7.91166 27.125H19.2133C23.5648 27.125 27.125 23.5648 27.125 19.2133V7.91166C27.125 3.56016 23.5648 0 19.2133 0Z" fill="black"/>
<path d="M20.9087 7.91166C20.5734 7.91166 20.2456 7.81223 19.9668 7.62595C19.688 7.43967 19.4707 7.17489 19.3424 6.86512C19.2141 6.55534 19.1805 6.21447 19.2459 5.88561C19.3113 5.55675 19.4728 5.25467 19.7099 5.01758C19.947 4.78049 20.2491 4.61902 20.5779 4.55361C20.9068 4.4882 21.2476 4.52177 21.5574 4.65008C21.8672 4.7784 22.132 4.99569 22.3183 5.27448C22.5045 5.55328 22.604 5.88105 22.604 6.21635C22.6044 6.43911 22.5609 6.65978 22.4759 6.86568C22.3909 7.07158 22.266 7.25866 22.1085 7.41618C21.951 7.5737 21.7639 7.69856 21.558 7.78359C21.3521 7.86862 21.1314 7.91214 20.9087 7.91166Z" fill="black"/>
<path d="M13.5625 9.04146C14.4567 9.04146 15.3308 9.30662 16.0743 9.8034C16.8177 10.3002 17.3972 11.0063 17.7394 11.8324C18.0816 12.6585 18.1711 13.5675 17.9967 14.4445C17.8222 15.3215 17.3916 16.1271 16.7594 16.7594C16.1271 17.3916 15.3215 17.8222 14.4445 17.9967C13.5675 18.1711 12.6585 18.0816 11.8324 17.7394C11.0063 17.3972 10.3002 16.8177 9.8034 16.0743C9.30662 15.3308 9.04147 14.4567 9.04147 13.5625C9.04275 12.3638 9.51948 11.2146 10.3671 10.3671C11.2146 9.51948 12.3638 9.04275 13.5625 9.04146ZM13.5625 6.78125C12.2213 6.78125 10.9102 7.17896 9.79504 7.9241C8.67987 8.66923 7.8107 9.72832 7.29744 10.9674C6.78419 12.2065 6.64989 13.57 6.91155 14.8855C7.17321 16.2009 7.81906 17.4092 8.76743 18.3576C9.71581 19.3059 10.9241 19.9518 12.2395 20.2135C13.555 20.4751 14.9185 20.3408 16.1576 19.8276C17.3967 19.3143 18.4558 18.4451 19.2009 17.33C19.946 16.2148 20.3438 14.9037 20.3438 13.5625C20.3438 11.764 19.6293 10.0392 18.3576 8.76743C17.0858 7.4957 15.361 6.78125 13.5625 6.78125Z" fill="black"/>
</svg>
