<svg width="30" height="23" viewBox="0 0 30 23" fill="none" xmlns="http://www.w3.org/2000/svg">
<path d="M14.0076 6.35294C14.0076 2.82353 11.2854 0 7.8828 0C7.8828 0 7.82609 0 7.76938 0H1.19093C0.510397 0 0 0.529412 0 1.23529V21.7647C0 22.4706 0.510397 23 1.19093 23H7.65595C11.0586 23 13.7807 20.1765 13.7807 16.6471C13.7807 14.5882 12.8166 12.7647 11.3422 11.5882C12.9301 10.3529 14.0076 8.47059 14.0076 6.35294ZM11.4556 16.5882C11.4556 18.7059 9.75425 20.4706 7.71267 20.4706H2.43856V12.7059H7.65595C9.75425 12.7059 11.4556 14.4706 11.4556 16.5882ZM7.76938 10.2353H7.65595C7.59924 10.2353 7.59924 10.2353 7.54253 10.2353H2.32514V2.47059H7.48582C7.54253 2.47059 7.59924 2.47059 7.65595 2.47059C7.71267 2.47059 7.71267 2.47059 7.76938 2.47059C9.81096 2.47059 11.5123 4.2353 11.5123 6.35294C11.569 8.47059 9.86768 10.2353 7.76938 10.2353ZM22.5709 7.52941C18.4877 7.52941 15.1418 11 15.1418 15.2353C15.1418 19.4706 18.4877 22.9412 22.5709 22.9412C24.7259 22.9412 26.8242 21.9412 28.242 20.2353C28.6957 19.7059 28.5822 18.9412 28.1285 18.4706C27.6181 18 26.8809 18.1176 26.4272 18.5882C25.4631 19.7647 24.0454 20.4118 22.5709 20.4118C20.189 20.4118 18.2042 18.7059 17.6371 16.4118H28.8091C29.4896 16.4118 30 15.8824 30 15.1765C30 11 26.6541 7.52941 22.5709 7.52941ZM22.5709 10C24.9527 10 26.9376 11.7059 27.5047 14H17.6938C18.1474 11.7059 20.1323 10 22.5709 10ZM18.828 6.35294H26.3705C27.051 6.35294 27.5614 5.82353 27.5614 5.11765C27.5614 4.41177 27.051 3.88235 26.3705 3.88235H18.828C18.1474 3.88235 17.6371 4.41177 17.6371 5.11765C17.6371 5.82353 18.1474 6.35294 18.828 6.35294Z" fill="black"/>
</svg>
